<?xml version="1.0" encoding="utf-8"?>
<!-- Generator: Adobe Illustrator 21.0.0, SVG Export Plug-In . SVG Version: 6.00 Build 0)  -->
<svg version="1.1" id="Layer_1" xmlns="http://www.w3.org/2000/svg" xmlns:xlink="http://www.w3.org/1999/xlink" x="0px" y="0px"
	 viewBox="0 0 1000 1000" style="enable-background:new 0 0 1000 1000;" xml:space="preserve">
<style type="text/css">
	.st0{fill:#4D4D4D;}
	.st1{fill:#00A64C;}
	.st2{fill:#DD1717;}
	.st3{fill:#C60909;}
	.st4{fill:#028439;}
</style>
<g>
	<g>
		<rect x="193.9" y="523.3" class="st0" width="612.1" height="2.6"/>
	</g>
	<g>
		<g>
			<g>
				<polygon class="st0" points="253.5,604.5 243.3,604.5 232.6,575.8 221.9,604.5 211.6,604.5 193.9,555.7 204.8,555.7 
					216.8,588.6 227.7,559.8 237.5,559.8 248.4,588.6 260.4,555.7 271.3,555.7 				"/>
			</g>
		</g>
		<g>
			<g>
				<path class="st0" d="M313.3,563c-1.4-2.7-3.1-4.8-5.1-6.3c-2-1.4-4.2-2.4-6.4-2.8c-2.3-0.5-4.3-0.7-6.1-0.7
					c-2.4,0-4.9,0.4-7.5,1.2c-2.6,0.8-4.8,1.8-6.8,3l-3.9,12.9h1c2.9-2.6,5.6-4.4,8.3-5.4c2.6-1,5.5-1.5,8.4-1.5
					c2,0,3.6,0.3,4.9,0.7c1.3,0.5,2.3,1.2,3.1,2.1c0.8,0.9,1.3,2.1,1.5,3.5c0.3,1.4,0.4,3,0.4,4.8c-5.3,0-9.8,0.5-13.5,1.3
					c-3.7,0.9-6.6,2.1-8.9,3.6c-2.3,1.5-3.9,3.3-4.9,5.3c-1,2-1.5,4.2-1.5,6.4c0,2,0.4,3.8,1.3,5.5c0.9,1.7,2.1,3.2,3.6,4.5
					c1.5,1.3,3.2,2.3,5.3,3c2,0.7,4.2,1.1,6.5,1.1c1.9,0,3.9-0.3,6.1-0.9c2.2-0.6,4.2-1.5,6-2.7v2.6h10.2v-30.2
					C315.4,569.5,314.7,565.8,313.3,563z M305.2,593.4c-1.4,0.8-2.9,1.5-4.6,2c-1.6,0.5-3.2,0.8-4.7,0.8c-2.7,0-5-0.3-6.8-1
					c-1.9-0.6-2.8-2-2.8-4.2c0-1.5,0.5-2.7,1.5-3.7c1-1,2.4-1.7,4-2.2c1.7-0.5,3.7-0.9,6.1-1.1c2.3-0.2,4.8-0.3,7.4-0.3V593.4z"/>
			</g>
		</g>
		<g>
			<g>
				<path class="st0" d="M342.2,565.9V586c0,2.7,0.7,4.8,2.1,6.6c1.4,1.7,3.1,2.6,5.1,2.6c1.8,0,3.7-0.3,5.7-1
					c2-0.6,3.9-1.6,5.4-2.7v10.3c-1.6,1.1-3.4,2-5.4,2.6c-2.1,0.6-4,1-5.7,1c-2.5,0-4.7-0.4-6.9-1.2c-2.1-0.8-4-2-5.5-3.4
					c-1.6-1.5-2.8-3.2-3.7-5.2c-0.9-2-1.3-4.1-1.3-6.5v-23.2h-10.1v-10.2h10.1v-9.7h10.2v9.7h20.6v10.2H342.2z"/>
			</g>
		</g>
		<g>
			<g>
				<path class="st0" d="M400.5,604.2c-2.7,0.8-5.6,1.1-8.6,1.1c-3.5,0-6.7-0.7-9.8-2c-3-1.3-5.7-3.1-7.9-5.4c-2.3-2.3-4-5-5.4-8
					c-1.3-3.1-2-6.4-2-9.8c0-3.4,0.7-6.6,2-9.6c1.3-3,3.1-5.6,5.4-7.9c2.3-2.3,5-4,8-5.4c3-1.3,6.3-2,9.8-2c3,0,5.9,0.4,8.6,1.1
					c2.7,0.8,5.2,1.8,7.6,3.2v12.3c-1.8-1.9-4.2-3.5-7-4.6c-2.8-1.2-5.9-1.7-9.3-1.7c-2,0-4,0.4-5.8,1.2c-1.8,0.8-3.4,1.8-4.7,3.2
					c-1.3,1.3-2.4,2.9-3.2,4.7c-0.8,1.8-1.2,3.7-1.2,5.7c0,2,0.4,4,1.2,5.8c0.8,1.8,1.8,3.4,3.2,4.8c1.3,1.3,2.9,2.4,4.7,3.2
					c1.8,0.8,3.7,1.2,5.8,1.2c3.3,0,6.4-0.6,9.3-1.7c2.8-1.1,5.2-2.7,7-4.7V601C405.8,602.4,403.3,603.4,400.5,604.2L400.5,604.2z"
					/>
			</g>
		</g>
		<g>
			<g>
				<path class="st0" d="M450,604.3v-29.2c0-1.3-0.3-2.5-0.9-3.7c-0.6-1.2-1.4-2.2-2.4-3.1c-1-0.9-2.2-1.6-3.6-2.1
					c-1.4-0.5-2.8-0.8-4.4-0.8c-2.6,0-5,0.6-7.2,1.9c-2.2,1.3-4,2.9-5.3,4.9v32.2H416v-71.7h10.2v26c1.8-1.1,3.8-1.9,5.9-2.6
					c2.1-0.6,4.3-0.9,6.7-0.9c2.9,0,5.6,0.5,8.1,1.6c2.6,1.1,4.8,2.5,6.8,4.4c2,1.8,3.6,4,4.7,6.4c1.2,2.4,1.7,5,1.7,7.6v29.2H450z"
					/>
			</g>
		</g>
		<g>
			<g>
				<path class="st0" d="M492.2,604.4c-2.1,0.6-4,1-5.7,1c-2.5,0-4.7-0.4-6.9-1.2c-2.1-0.8-4-2-5.5-3.4c-1.6-1.5-2.8-3.2-3.7-5.2
					c-0.9-2-1.3-4.1-1.3-6.5v-56.3h10.2V586c0,2.7,0.7,4.8,2,6.6c1.4,1.7,3.1,2.6,5.1,2.6c1.8,0,3.7-0.3,5.7-1
					c2.1-0.6,3.9-1.6,5.4-2.7v10.3C496.1,602.9,494.3,603.8,492.2,604.4L492.2,604.4z"/>
			</g>
		</g>
		<g>
			<g>
				<path class="st0" d="M502.9,555.7v48.5H513v-48.5H502.9z M508,535.7l-7.1,7.3l7.1,7.2l7.2-7.2L508,535.7z"/>
			</g>
		</g>
		<g>
			<g>
				<path class="st0" d="M559.1,597.2c-1.1,2.1-2.6,3.8-4.5,5.1c-1.9,1.3-4.1,2.2-6.7,2.8c-2.6,0.5-5.3,0.8-8.1,0.8
					c-3.5,0-6.7-0.6-9.8-1.8c-3-1.2-5.8-2.9-8.1-5.1v-13.8c1.6,3.3,4,5.8,7.2,7.7c3.1,1.8,6.7,2.8,10.5,2.8c0.5,0,1.4,0,2.7-0.1
					c1.2,0,2.5-0.2,3.7-0.6c1.2-0.4,2.3-1,3.3-1.7c1-0.8,1.4-2,1.4-3.5c0-1.4-0.7-2.5-2.1-3.2c-1.4-0.7-3.2-1.3-5.3-1.8l-6.9-1.5
					c-2.5-0.5-4.7-1.4-6.9-2.5c-2.1-1.1-3.9-2.6-5.3-4.5c-1.4-1.9-2.1-4.5-2.1-7.9c0-2,0.5-4,1.4-5.8c0.9-1.8,2.2-3.4,3.7-4.8
					c1.6-1.4,3.4-2.4,5.5-3.2c2.1-0.8,4.4-1.2,6.8-1.2c3.1,0,6,0.4,8.9,1.3c2.8,0.9,5.4,2,7.8,3.5V570c-2-1.9-4.4-3.4-7.3-4.6
					c-2.9-1.2-6-1.7-9.4-1.7c-2,0-3.7,0.3-5.1,0.9c-1.4,0.6-2.1,1.9-2.1,3.8c0,1.6,0.7,2.9,2.1,3.7c1.4,0.8,3.2,1.5,5.3,2
					c2.1,0.5,4.4,1,6.8,1.5c2.4,0.5,4.7,1.3,6.8,2.3c2.1,1,3.9,2.4,5.3,4.2c1.4,1.8,2.1,4.2,2.1,7.3
					C560.7,592.5,560.2,595.1,559.1,597.2L559.1,597.2z"/>
			</g>
		</g>
		<g>
			<g>
				<path class="st0" d="M585.7,565.9V586c0,2.7,0.7,4.8,2.1,6.6c1.4,1.7,3.1,2.6,5.1,2.6c1.8,0,3.7-0.3,5.7-1
					c2-0.6,3.9-1.6,5.4-2.7v10.3c-1.6,1.1-3.4,2-5.4,2.6c-2.1,0.6-4,1-5.7,1c-2.5,0-4.7-0.4-6.9-1.2c-2.1-0.8-4-2-5.5-3.4
					c-1.6-1.5-2.8-3.2-3.7-5.2c-0.9-2-1.3-4.1-1.3-6.5v-23.2h-10.1v-10.2h10.1v-9.7h10.2v9.7h20.6v10.2H585.7z"/>
			</g>
		</g>
		<g>
			<g>
				<rect x="609.3" y="594.3" class="st0" width="10.2" height="9.9"/>
			</g>
		</g>
		<g>
			<g>
				<path class="st0" d="M658,604.2c-2.7,0.8-5.6,1.1-8.6,1.1c-3.5,0-6.7-0.7-9.8-2c-3-1.3-5.7-3.1-7.9-5.4c-2.3-2.3-4-5-5.4-8
					c-1.3-3.1-2-6.4-2-9.8c0-3.4,0.7-6.6,2-9.6c1.3-3,3.1-5.6,5.4-7.9c2.3-2.3,5-4,8-5.4c3-1.3,6.3-2,9.8-2c3,0,5.9,0.4,8.6,1.1
					c2.7,0.8,5.2,1.8,7.6,3.2v12.3c-1.8-1.9-4.2-3.5-7-4.6c-2.8-1.2-5.9-1.7-9.3-1.7c-2,0-4,0.4-5.8,1.2c-1.8,0.8-3.4,1.8-4.7,3.2
					c-1.3,1.3-2.4,2.9-3.2,4.7c-0.8,1.8-1.2,3.7-1.2,5.7c0,2,0.4,4,1.2,5.8c0.8,1.8,1.8,3.4,3.2,4.8c1.3,1.3,2.9,2.4,4.7,3.2
					c1.8,0.8,3.7,1.2,5.8,1.2c3.3,0,6.4-0.6,9.3-1.7c2.8-1.1,5.2-2.7,7-4.7V601C663.2,602.4,660.7,603.4,658,604.2L658,604.2z"/>
			</g>
		</g>
		<g>
			<g>
				<path class="st0" d="M719.6,570.4c-1.3-3-3.1-5.6-5.4-7.9c-2.3-2.3-4.9-4-7.9-5.4c-3-1.3-6.3-2-9.7-2c-3.5,0-6.8,0.7-9.8,2
					c-3.1,1.3-5.7,3.1-8,5.4c-2.3,2.3-4.1,4.8-5.4,7.9c-1.3,3-2,6.2-2,9.6c0,3.5,0.6,6.8,2,9.8c1.3,3.1,3.1,5.8,5.4,8.1
					c2.3,2.3,4.9,4.1,7.9,5.4c3,1.3,6.3,2,9.8,2c3.4,0,6.6-0.6,9.7-2c3-1.3,5.7-3.1,8-5.4c2.3-2.3,4.1-5,5.4-8.1
					c1.3-3.1,2-6.3,2-9.8C721.6,576.6,720.9,573.4,719.6,570.4z M710.1,585.8c-0.8,1.9-1.8,3.5-3.2,4.8c-1.4,1.3-2.9,2.4-4.7,3.2
					c-1.8,0.8-3.7,1.2-5.7,1.2c-2.1,0-4-0.4-5.8-1.2c-1.8-0.8-3.4-1.8-4.7-3.2c-1.3-1.3-2.4-2.9-3.2-4.8c-0.8-1.8-1.2-3.8-1.2-5.8
					c0-2,0.4-3.9,1.2-5.7c0.8-1.8,1.8-3.4,3.2-4.7c1.3-1.3,2.9-2.4,4.7-3.2c1.8-0.8,3.7-1.2,5.8-1.2c2.1,0,4,0.4,5.7,1.2
					c1.8,0.8,3.4,1.8,4.7,3.2c1.4,1.3,2.4,2.9,3.2,4.7c0.8,1.8,1.2,3.7,1.2,5.6C711.3,582,710.9,584,710.1,585.8z"/>
			</g>
		</g>
		<g>
			<g>
				<path class="st0" d="M795.8,604.3v-28.9c0-1.3-0.3-2.5-0.9-3.7c-0.6-1.2-1.4-2.2-2.4-3.1c-1-0.9-2.2-1.6-3.6-2.1
					c-1.4-0.5-2.8-0.8-4.4-0.8c-2.2,0-4.3,0.6-6.2,1.7c-2,1.2-3.8,2.7-5.3,4.7v32.2h-10.2v-28.9c0-1.3-0.3-2.5-0.9-3.7
					c-0.6-1.2-1.4-2.2-2.4-3.1c-1-0.9-2.2-1.6-3.6-2.1c-1.4-0.5-2.8-0.8-4.4-0.8c-2.3,0-4.5,0.4-6.4,1.1c-1.9,0.8-3.6,1.8-4.9,3.1
					v34.4h-10.5v-48.7h10.6v3c1.8-1.1,3.8-1.9,5.9-2.6c2.1-0.6,4.3-0.9,6.7-0.9c2.9,0,5.7,0.7,8.3,2c2.6,1.4,4.9,3.1,6.8,5.3
					c2.7-2.3,5.6-4.1,8.6-5.4c3-1.3,6.1-1.9,9.4-1.9c2.7,0,5.2,0.5,7.6,1.6c2.4,1.1,4.6,2.6,6.4,4.4c1.8,1.8,3.3,4,4.4,6.5
					c1.1,2.5,1.6,5.1,1.6,7.8v28.9H795.8z"/>
			</g>
		</g>
	</g>
	<g>
		<g>
			<g>
				<path class="st1" d="M225.5,445.7V477c0,4.1,1.1,7.5,3.2,10.2c2.1,2.6,4.8,4,7.9,4c2.7,0,5.7-0.5,8.9-1.5c3.2-1,6-2.4,8.4-4.2
					v16c-2.4,1.7-5.2,3-8.4,4.1c-3.2,1-6.1,1.5-8.9,1.5c-3.8,0-7.4-0.6-10.6-1.9c-3.3-1.3-6.1-3-8.6-5.3c-2.4-2.3-4.3-4.9-5.7-8
					c-1.4-3.1-2.1-6.4-2.1-10v-36h-15.7v-15.9h15.7v-15.1h15.9v15.1h31.9v15.9H225.5z"/>
			</g>
		</g>
	</g>
	<g>
		<g>
			<g>
				<path class="st1" d="M319.7,505.2V460c0-2-0.4-3.9-1.3-5.8c-0.9-1.9-2.1-3.5-3.7-4.8c-1.6-1.4-3.4-2.5-5.6-3.3
					c-2.1-0.8-4.4-1.2-6.8-1.2c-4,0-7.7,1-11.1,2.9c-3.4,2-6.1,4.5-8.3,7.5v49.8H267V394.1h15.9v40.3c2.9-1.7,5.9-3,9.2-4
					c3.3-1,6.7-1.4,10.3-1.4c4.4,0,8.6,0.8,12.6,2.5c4,1.6,7.5,3.9,10.6,6.7c3.1,2.9,5.5,6.2,7.3,9.9c1.8,3.8,2.7,7.7,2.7,11.8v45.2
					H319.7z"/>
			</g>
		</g>
	</g>
	<g>
		<g>
			<g>
				<path class="st1" d="M421.7,449.6c-1.9-5.5-4.6-10-8.2-13.5c-3.6-3.5-7.8-6-12.7-7.6c-4.9-1.6-9.8-2.4-14.9-2.4
					c-5.4,0-10.4,1-15.2,3.1c-4.7,2.1-8.8,4.8-12.4,8.3c-3.5,3.5-6.3,7.6-8.4,12.2c-2.1,4.6-3.1,9.6-3.1,14.9
					c0,5.7,1.1,11.1,3.3,16.3c2.2,5.1,5.1,9.6,8.8,13.4c3.7,3.8,8.1,6.8,13.1,9.1c5,2.2,10.4,3.3,16.1,3.3c5.5,0,10.8-0.8,16-2.4
					c5.1-1.6,9.9-3.8,14.2-6.5v-16.5c-3.4,2.9-7.5,5.2-12.3,7c-4.8,1.8-10,2.7-15.5,2.7c-3.4,0-6.6-0.5-9.7-1.6
					c-3.1-1.1-5.8-2.6-8.2-4.5c-2.4-1.9-4.4-4.2-6-6.8c-1.6-2.6-2.8-5.5-3.4-8.6h60C424,461.8,423.5,455.2,421.7,449.6z
					 M364.4,454.3c1.8-3.7,4.6-6.8,8.4-9.3c3.8-2.5,8.1-3.7,12.9-3.7c2.6,0,5.1,0.4,7.5,1.1c2.3,0.7,4.4,1.7,6.1,2.9
					c1.7,1.2,3.1,2.5,4.2,4.1c1.1,1.6,1.6,3.2,1.6,4.9H364.4z"/>
			</g>
		</g>
	</g>
	<g>
		<g>
			<g>
				<path class="st1" d="M490.7,494.3c-1.7,3.3-4.1,5.9-7,7.9c-2.9,2-6.3,3.4-10.3,4.3c-4,0.8-8.2,1.3-12.6,1.3
					c-5.4,0-10.4-0.9-15.2-2.8c-4.7-1.9-8.9-4.5-12.6-7.9v-21.4c2.5,5.1,6.2,9,11.1,11.9c4.9,2.9,10.3,4.3,16.3,4.3
					c0.8,0,2.2,0,4.1-0.1c1.9,0,3.8-0.4,5.7-1c1.9-0.6,3.6-1.5,5.1-2.7c1.5-1.2,2.2-3,2.2-5.5c0-2.2-1.1-3.9-3.3-5
					c-2.2-1.1-4.9-2-8.2-2.8l-10.6-2.4c-3.8-0.9-7.4-2.1-10.6-3.8c-3.3-1.7-6-4-8.2-7c-2.2-3-3.3-7-3.3-12.2c0-3.2,0.7-6.2,2.1-9
					c1.4-2.8,3.4-5.3,5.8-7.4c2.4-2.1,5.3-3.8,8.6-5c3.3-1.2,6.8-1.8,10.5-1.8c4.8,0,9.3,0.7,13.7,2c4.4,1.3,8.4,3.1,12.1,5.5V452
					c-3.1-3-6.8-5.3-11.3-7.1c-4.4-1.8-9.3-2.7-14.6-2.7c-3.1,0-5.7,0.5-7.9,1.4c-2.2,1-3.3,2.9-3.3,5.9c0,2.5,1.1,4.4,3.3,5.7
					c2.2,1.3,4.9,2.3,8.2,3.1c3.3,0.8,6.8,1.6,10.6,2.4c3.8,0.8,7.3,2,10.6,3.6c3.3,1.6,6,3.8,8.2,6.5c2.2,2.7,3.3,6.5,3.3,11.3
					C493.3,486.9,492.5,491,490.7,494.3L490.7,494.3z"/>
			</g>
		</g>
	</g>
	<g>
		<g>
			<g>
				<path class="st1" d="M532.1,445.7V477c0,4.1,1.1,7.5,3.2,10.2c2.1,2.6,4.8,4,7.9,4c2.7,0,5.7-0.5,8.9-1.5c3.2-1,6-2.4,8.4-4.2
					v16c-2.4,1.7-5.2,3-8.4,4.1c-3.2,1-6.1,1.5-8.9,1.5c-3.8,0-7.4-0.6-10.6-1.9c-3.3-1.3-6.1-3-8.6-5.3c-2.4-2.3-4.3-4.9-5.7-8
					c-1.4-3.1-2.1-6.4-2.1-10v-36h-15.7v-15.9h15.7v-15.1h15.9v15.1H564v15.9H532.1z"/>
			</g>
		</g>
	</g>
	<g>
		<g>
			<g>
				<path class="st1" d="M709.9,505c-4.2,1.2-8.7,1.7-13.3,1.7c-5.4,0-10.5-1-15.2-3.1c-4.7-2.1-8.8-4.9-12.3-8.4
					c-3.5-3.6-6.3-7.7-8.3-12.5c-2.1-4.8-3.1-9.8-3.1-15.2c0-5.3,1-10.3,3.1-14.9c2.1-4.7,4.9-8.7,8.4-12.2
					c3.5-3.5,7.7-6.3,12.4-8.3c4.7-2.1,9.8-3.1,15.2-3.1c4.7,0,9.1,0.6,13.3,1.7c4.2,1.2,8.1,2.8,11.8,4.9v19.1
					c-2.9-3-6.5-5.3-10.9-7.1c-4.4-1.8-9.2-2.7-14.4-2.7c-3.2,0-6.2,0.6-9,1.8c-2.8,1.2-5.2,2.9-7.3,4.9c-2.1,2.1-3.7,4.5-4.9,7.3
					c-1.2,2.8-1.8,5.7-1.8,8.8c0,3.2,0.6,6.2,1.8,9c1.2,2.9,2.9,5.3,4.9,7.4c2.1,2.1,4.5,3.7,7.3,4.9c2.8,1.2,5.8,1.8,9,1.8
					c5.2,0,10-0.9,14.4-2.6c4.4-1.8,8-4.2,10.9-7.2v19C718.1,502.2,714.1,503.9,709.9,505L709.9,505z"/>
			</g>
		</g>
	</g>
	<g>
		<g>
			<g>
				<polygon class="st1" points="783.8,505.4 749.7,469.3 749.7,505.2 733.8,505.2 733.8,394.1 749.7,394.1 749.7,454.4 
					775.4,432.3 799.6,432.3 765.1,462.5 806.1,505.4 				"/>
			</g>
		</g>
	</g>
	<path class="st1" d="M628.5,482.5c1-1.1,1.8-2.4,2.5-3.7C630.2,480.1,629.4,481.3,628.5,482.5z M610.8,444.9
		c-7.1,0-13.5,3.3-17.7,8.4c0.5-0.6,1-1.1,1.5-1.6c2.1-2.1,4.5-3.7,7.3-4.9C604.7,445.6,607.6,445,610.8,444.9
		c3.2,0.1,6.1,0.7,8.9,1.9c2.7,1.2,5.2,2.9,7.3,4.9c0.8,0.8,1.5,1.6,2.2,2.5C625,448.6,618.3,444.9,610.8,444.9z M622.2,487.8
		L622.2,487.8c-0.2,0.1-0.4,0.2-0.6,0.3C621.8,488,622,487.9,622.2,487.8z"/>
	<path class="st0" d="M646.5,452.8c-2.1-4.6-4.8-8.7-8.3-12.2s-7.6-6.3-12.3-8.3c-4.7-2.1-9.7-3.1-15-3.1c-5.4,0-10.4,1-15.1,3.1
		c-4.7,2.1-8.8,4.8-12.3,8.3c-3.5,3.5-6.3,7.6-8.4,12.2c-2.1,4.6-3.1,9.6-3.1,14.9c0,5.4,1,10.5,3.1,15.2c2.1,4.7,4.8,8.9,8.3,12.4
		c3.5,3.5,7.6,6.3,12.3,8.4c4.6,2,9.5,3,14.7,3.1h0.8c5.1,0,10-1.1,14.5-3.1c4.7-2.1,8.8-4.9,12.4-8.4c3.5-3.5,6.3-7.7,8.4-12.4
		c2.1-4.8,3.1-9.8,3.1-15.2C649.6,462.4,648.6,457.4,646.5,452.8z M633.8,468.8c0,0.8-0.1,1.6-0.3,2.4c-0.1,0.5-0.1,1-0.3,1.5
		c0,0.2-0.1,0.4-0.1,0.6c-0.1,0.4-0.2,0.8-0.3,1.1c-0.2,0.6-0.4,1.2-0.6,1.8c-0.1,0.1-0.1,0.3-0.2,0.4c-0.3,0.7-0.6,1.4-1,2.1l0,0
		c-0.7,1.3-1.5,2.6-2.5,3.7c0,0,0,0,0,0c-0.5,0.6-1,1.1-1.5,1.6c-0.3,0.3-0.6,0.6-1,0.9c-0.1,0.1-0.2,0.2-0.3,0.3
		c0,0-0.1,0.1-0.1,0.1c-0.4,0.4-0.9,0.7-1.3,1.1c0,0,0,0,0,0c-0.6,0.4-1.3,0.8-1.9,1.2v0c-0.2,0.1-0.4,0.2-0.6,0.3
		c-0.2,0.1-0.4,0.3-0.6,0.4c-0.2,0.1-0.4,0.2-0.6,0.3c-0.2,0.1-0.5,0.2-0.7,0.3c-2.5,1.1-5.1,1.7-7.9,1.8v0c-0.2,0-0.4,0-0.6,0h-0.8
		c-0.2,0-0.4,0-0.6,0v0c-2.8-0.1-5.5-0.7-8-1.8c-0.8-0.4-1.7-0.8-2.5-1.3v0c-0.7-0.4-1.3-0.8-1.9-1.2v0c-0.1-0.1-0.3-0.2-0.4-0.3
		c-0.9-0.6-1.7-1.3-2.5-2.1c-0.3-0.3-0.6-0.6-0.8-0.9c-0.5-0.5-0.9-1-1.3-1.6c0-0.1-0.1-0.1-0.1-0.2c-0.4-0.4-0.7-0.9-0.9-1.4
		c-0.3-0.4-0.5-0.8-0.8-1.3c0,0,0,0,0-0.1c-0.3-0.6-0.7-1.3-0.9-2c-0.5-1.2-0.9-2.4-1.2-3.8c-0.1-0.2-0.1-0.4-0.1-0.7
		c-0.3-1.5-0.5-3-0.5-4.6c0-1.5,0.1-3.1,0.5-4.6c0.1-0.3,0.1-0.7,0.2-1c0.1-0.4,0.2-0.8,0.4-1.3c0.1-0.3,0.2-0.7,0.4-1
		c0.1-0.4,0.3-0.7,0.4-1c0.3-0.7,0.6-1.4,1-2c0.3-0.6,0.7-1.2,1.1-1.8c0-0.1,0.1-0.1,0.1-0.2c0.4-0.6,0.8-1.1,1.2-1.6v0
		c4.2-5.1,10.6-8.4,17.7-8.4c7.5,0,14.2,3.7,18.4,9.3c0,0,0.1,0.1,0.1,0.1c0.2,0.3,0.5,0.7,0.7,1c0.3,0.4,0.6,0.9,0.8,1.3
		c0.4,0.7,0.8,1.4,1.1,2.1c0,0.1,0.1,0.1,0.1,0.2c0.1,0.2,0.1,0.3,0.2,0.5c0.5,1.2,0.9,2.5,1.1,3.8c0.2,0.8,0.3,1.5,0.3,2.3
		c0,0.4,0.1,0.8,0.1,1.2c0,0.4,0,0.8,0,1.2C633.8,468.2,633.8,468.5,633.8,468.8z"/>
	<path class="st1" d="M629.2,454.2c-0.7-0.9-1.4-1.7-2.2-2.5c-2.1-2.1-4.5-3.7-7.3-4.9c-2.8-1.2-5.7-1.8-8.9-1.8
		c-3.2,0-6.1,0.6-9,1.8c-2.8,1.2-5.2,2.9-7.3,4.9c-0.5,0.5-1,1-1.5,1.6c4.2-5.1,10.6-8.4,17.7-8.4
		C618.3,444.9,625,448.6,629.2,454.2z"/>
	<path class="st1" d="M589.7,459C589.7,459,589.7,459,589.7,459c-0.1,0.3-0.3,0.7-0.4,1C589.4,459.7,589.5,459.4,589.7,459z"/>
	<path class="st1" d="M631,478.8c-0.7,1.3-1.5,2.6-2.5,3.7C629.4,481.3,630.2,480.1,631,478.8z"/>
	<path class="st1" d="M622.2,487.8L622.2,487.8c-0.2,0.1-0.4,0.3-0.6,0.4C621.8,488,622,487.9,622.2,487.8z"/>
	<rect x="610.4" y="472.1" class="st0" width="0.8" height="27.8"/>
	<rect x="610.4" y="442.5" class="st0" width="0.8" height="27.8"/>
	<g>
		<rect x="606.7" y="465.1" class="st2" width="8.2" height="10.4"/>
		<polygon class="st3" points="606.9,475.2 614.7,475.2 606.9,465.4 		"/>
	</g>
	<rect x="598.9" y="464.9" class="st0" width="0.8" height="27.8"/>
	<rect x="598.9" y="437.9" class="st0" width="0.8" height="27.8"/>
	<g>
		<rect x="595.2" y="460.5" class="st1" width="8.2" height="8.4"/>
		<polygon class="st4" points="595.4,468.6 603.2,468.6 595.4,460.7 		"/>
	</g>
	<rect x="621.8" y="462.6" class="st0" width="0.8" height="27.8"/>
	<rect x="621.8" y="433" class="st0" width="0.8" height="27.8"/>
	<g>
		<rect x="618.1" y="455.6" class="st1" width="8.2" height="15.2"/>
		<polygon class="st4" points="618.4,470.4 626.1,470.4 618.4,456.1 		"/>
	</g>
</g>
</svg>
